# xmcd
#
# Track frame offsets: 
#        150
#        13379
#        24856
#        29747
#        44192
#        49875
#        60038
#        80328
#        89175
#        95791
#        106086
#        112708
#        121948
#        127993
#        142523
#        153416
#        161381
#        169927
#
# Disc length: 2335 seconds
#
# Revision: 0
# Processed by: cddbd v1.5.2PL0 Copyright (c) Steve Scherf et al.
# Submitted via: ExactAudioCopy v0.99pb5
#
DISCID=e2091d12
DTITLE=The Very Best of Tammy Wynette - Tammy Wynette
DYEAR=2005
DGENRE=Country
TTITLE0=Stand By Your Man
TTITLE1=D.I.V.O.R.C.E.
TTITLE2=Your Good Girl's Gonna Go Bad
TTITLE3='Till I Can Make It On My Own
TTITLE4=Singing My Song
TTITLE5=Womanhood
TTITLE6=Medley
TTITLE7=Much Better Luck Than Me
TTITLE8=Such A Fool to Love Me
TTITLE9=Another Chance
TTITLE10=I Can't Help It
TTITLE11=No Sign of Living
TTITLE12=Welcome to My World
TTITLE13=Cryin' In The Rain
TTITLE14=I Still Believe In Fairy Tales
TTITLE15=When The Grass Grows Over Me
TTITLE16=He Says The Same Things To Me
TTITLE17=Till' Then And Only Then
EXTD=
EXTT0=
EXTT1=
EXTT2=
EXTT3=
EXTT4=
EXTT5=
EXTT6=
EXTT7=
EXTT8=
EXTT9=
EXTT10=
EXTT11=
EXTT12=
EXTT13=
EXTT14=
EXTT15=
EXTT16=
EXTT17=
PLAYORDER=
